<svg width="415" height="69" viewBox="0 0 415 69" fill="none" xmlns="http://www.w3.org/2000/svg">
<path fill-rule="evenodd" clip-rule="evenodd" d="M43.5151 3H4V67H22.8121V47.5003H43.5151V31.2578H31.0155L26.9833 36.2653V31.2578H22.8121V19.2909H43.5151V3ZM52.2608 3H71.0466V50.6424H92.8827V66.9106H52.2608V3ZM243.25 66.9106H221.026L213.735 35.9231L206.404 66.9106H184.084L168.687 3H190.281L196.486 41.5653L207.082 3H220.348L230.944 41.5653L237.149 3H258.743L243.25 66.9106ZM285.519 3H266.733V66.9106H307.355V50.6424H285.519V3ZM316.285 3H335.071V50.6424H356.907V66.9106H316.285V3ZM350.742 3L373.159 43.9125V66.9106H391.896V43.9125L414.216 3H391.509L382.503 22.6089L373.546 3H350.742Z" fill="black"/>
<path fill-rule="evenodd" clip-rule="evenodd" d="M100 35.0689C100 30.4208 100.839 26.0956 102.518 22.0931C104.228 18.0583 106.601 14.54 109.635 11.5382C112.669 8.53631 116.22 6.19615 120.287 4.51769C124.386 2.83923 128.808 2 133.553 2C138.395 2 142.849 2.83923 146.916 4.51769C151.016 6.19615 154.566 8.53631 157.568 11.5382C160.602 14.54 162.942 18.0583 164.588 22.0931C166.267 26.0956 167.106 30.4208 167.106 35.0689C167.106 39.7492 166.299 44.1068 164.685 48.1415C163.071 52.144 160.763 55.6623 157.762 58.6964C154.792 61.6983 151.258 64.0385 147.158 65.7169C143.059 67.3954 138.524 68.2346 133.553 68.2346C128.453 68.2346 123.837 67.3954 119.706 65.7169C115.606 64.0385 112.088 61.6983 109.151 58.6964C106.214 55.6623 103.954 52.144 102.372 48.1415C100.791 44.1068 100 39.7492 100 35.0689ZM146 35C146 41.6274 140.627 47 134 47C133.786 47 133.573 46.9944 133.361 46.9833L133.382 47H123.714L126.22 44.1365C123.638 41.9354 122 38.659 122 35C122 28.3726 127.373 23 134 23C140.627 23 146 28.3726 146 35Z" fill="black"/>
<mask id="path-3-outside-1_40_3898" maskUnits="userSpaceOnUse" x="0" y="0" width="413" height="66" fill="black">
<rect fill="white" width="413" height="66"/>
<path fill-rule="evenodd" clip-rule="evenodd" d="M40.5151 1H1V65H19.8121V45.5003H40.5151V29.2578H28.0155L23.9833 34.2653V29.2578H19.8121V17.2909H40.5151V1ZM49.2608 1H68.0466V48.6424H89.8827V64.9106H49.2608V1ZM240.25 64.9106H218.026L210.735 33.9231L203.404 64.9106H181.084L165.687 1H187.281L193.486 39.5653L204.082 1H217.348L227.944 39.5653L234.149 1H255.743L240.25 64.9106ZM282.519 1H263.733V64.9106H304.355V48.6424H282.519V1ZM313.285 1H332.071V48.6424H353.907V64.9106H313.285V1ZM347.742 1L370.159 41.9125V64.9106H388.896V41.9125L411.216 1H388.509L379.503 20.6089L370.546 1H347.742Z"/>
</mask>
<path fill-rule="evenodd" clip-rule="evenodd" d="M40.5151 1H1V65H19.8121V45.5003H40.5151V29.2578H28.0155L23.9833 34.2653V29.2578H19.8121V17.2909H40.5151V1ZM49.2608 1H68.0466V48.6424H89.8827V64.9106H49.2608V1ZM240.25 64.9106H218.026L210.735 33.9231L203.404 64.9106H181.084L165.687 1H187.281L193.486 39.5653L204.082 1H217.348L227.944 39.5653L234.149 1H255.743L240.25 64.9106ZM282.519 1H263.733V64.9106H304.355V48.6424H282.519V1ZM313.285 1H332.071V48.6424H353.907V64.9106H313.285V1ZM347.742 1L370.159 41.9125V64.9106H388.896V41.9125L411.216 1H388.509L379.503 20.6089L370.546 1H347.742Z" fill="white"/>
<path d="M1 1V0H0V1H1ZM40.5151 1H41.5151V0H40.5151V1ZM1 65H0V66H1V65ZM19.8121 65V66H20.8121V65H19.8121ZM19.8121 45.5003V44.5003H18.8121V45.5003H19.8121ZM40.5151 45.5003V46.5003H41.5151V45.5003H40.5151ZM40.5151 29.2578H41.5151V28.2578H40.5151V29.2578ZM28.0155 29.2578V28.2578H27.5368L27.2366 28.6306L28.0155 29.2578ZM23.9833 34.2653H22.9833V37.1016L24.7622 34.8925L23.9833 34.2653ZM23.9833 29.2578H24.9833V28.2578H23.9833V29.2578ZM19.8121 29.2578H18.8121V30.2578H19.8121V29.2578ZM19.8121 17.2909V16.2909H18.8121V17.2909H19.8121ZM40.5151 17.2909V18.2909H41.5151V17.2909H40.5151ZM68.0466 1H69.0466V0H68.0466V1ZM49.2608 1V0H48.2608V1H49.2608ZM68.0466 48.6424H67.0466V49.6424H68.0466V48.6424ZM89.8827 48.6424H90.8827V47.6424H89.8827V48.6424ZM89.8827 64.9106V65.9106H90.8827V64.9106H89.8827ZM49.2608 64.9106H48.2608V65.9106H49.2608V64.9106ZM218.026 64.9106L217.053 65.1396L217.234 65.9106H218.026V64.9106ZM240.25 64.9106V65.9106H241.036L241.221 65.1462L240.25 64.9106ZM210.735 33.9231L211.708 33.694L209.762 33.6929L210.735 33.9231ZM203.404 64.9106V65.9106H204.195L204.377 65.1408L203.404 64.9106ZM181.084 64.9106L180.112 65.1448L180.296 65.9106H181.084V64.9106ZM165.687 1V0H164.418L164.715 1.23421L165.687 1ZM187.281 1L188.269 0.841152L188.133 0H187.281V1ZM193.486 39.5653L192.499 39.7242L194.45 39.8302L193.486 39.5653ZM204.082 1V0H203.32L203.118 0.735065L204.082 1ZM217.348 1L218.313 0.735066L218.111 0H217.348V1ZM227.944 39.5653L226.98 39.8303L228.932 39.7242L227.944 39.5653ZM234.149 1V0H233.297L233.162 0.841152L234.149 1ZM255.743 1L256.715 1.2356L257.014 0H255.743V1ZM263.733 1V0H262.733V1H263.733ZM282.519 1H283.519V0H282.519V1ZM263.733 64.9106H262.733V65.9106H263.733V64.9106ZM304.355 64.9106V65.9106H305.355V64.9106H304.355ZM304.355 48.6424H305.355V47.6424H304.355V48.6424ZM282.519 48.6424H281.519V49.6424H282.519V48.6424ZM332.071 1H333.071V0H332.071V1ZM313.285 1V0H312.285V1H313.285ZM332.071 48.6424H331.071V49.6424H332.071V48.6424ZM353.907 48.6424H354.907V47.6424H353.907V48.6424ZM353.907 64.9106V65.9106H354.907V64.9106H353.907ZM313.285 64.9106H312.285V65.9106H313.285V64.9106ZM370.159 41.9125H371.159V41.6565L371.036 41.4319L370.159 41.9125ZM347.742 1V0H346.053L346.865 1.48052L347.742 1ZM370.159 64.9106H369.159V65.9106H370.159V64.9106ZM388.896 64.9106V65.9106H389.896V64.9106H388.896ZM388.896 41.9125L388.018 41.4335L387.896 41.6574V41.9125H388.896ZM411.216 1L412.094 1.47892L412.901 0H411.216V1ZM388.509 1V0H387.868L387.6 0.58265L388.509 1ZM379.503 20.6089L378.594 21.0244L379.501 23.0103L380.412 21.0263L379.503 20.6089ZM370.546 1L371.456 0.584506L371.189 0H370.546V1ZM1 2H40.5151V0H1V2ZM2 65V1H0V65H2ZM19.8121 64H1V66H19.8121V64ZM18.8121 45.5003V65H20.8121V45.5003H18.8121ZM40.5151 44.5003H19.8121V46.5003H40.5151V44.5003ZM39.5151 29.2578V45.5003H41.5151V29.2578H39.5151ZM28.0155 30.2578H40.5151V28.2578H28.0155V30.2578ZM24.7622 34.8925L28.7943 29.885L27.2366 28.6306L23.2044 33.6381L24.7622 34.8925ZM22.9833 29.2578V34.2653H24.9833V29.2578H22.9833ZM19.8121 30.2578H23.9833V28.2578H19.8121V30.2578ZM18.8121 17.2909V29.2578H20.8121V17.2909H18.8121ZM40.5151 16.2909H19.8121V18.2909H40.5151V16.2909ZM39.5151 1V17.2909H41.5151V1H39.5151ZM68.0466 0H49.2608V2H68.0466V0ZM69.0466 48.6424V1H67.0466V48.6424H69.0466ZM89.8827 47.6424H68.0466V49.6424H89.8827V47.6424ZM90.8827 64.9106V48.6424H88.8827V64.9106H90.8827ZM49.2608 65.9106H89.8827V63.9106H49.2608V65.9106ZM48.2608 1V64.9106H50.2608V1H48.2608ZM218.026 65.9106H240.25V63.9106H218.026V65.9106ZM209.762 34.1521L217.053 65.1396L219 64.6816L211.708 33.694L209.762 34.1521ZM204.377 65.1408L211.708 34.1533L209.762 33.6929L202.431 64.6804L204.377 65.1408ZM181.084 65.9106H203.404V63.9106H181.084V65.9106ZM164.715 1.23421L180.112 65.1448L182.056 64.6764L166.659 0.765791L164.715 1.23421ZM187.281 0H165.687V2H187.281V0ZM194.473 39.4065L188.269 0.841152L186.294 1.15885L192.499 39.7242L194.473 39.4065ZM203.118 0.735065L192.522 39.3004L194.45 39.8302L205.046 1.26494L203.118 0.735065ZM217.348 0H204.082V2H217.348V0ZM228.909 39.3004L218.313 0.735066L216.384 1.26493L226.98 39.8303L228.909 39.3004ZM233.162 0.841152L226.957 39.4065L228.932 39.7242L235.136 1.15885L233.162 0.841152ZM255.743 0H234.149V2H255.743V0ZM241.221 65.1462L256.715 1.2356L254.771 0.7644L239.278 64.675L241.221 65.1462ZM263.733 2H282.519V0H263.733V2ZM264.733 64.9106V1H262.733V64.9106H264.733ZM304.355 63.9106H263.733V65.9106H304.355V63.9106ZM303.355 48.6424V64.9106H305.355V48.6424H303.355ZM282.519 49.6424H304.355V47.6424H282.519V49.6424ZM281.519 1V48.6424H283.519V1H281.519ZM332.071 0H313.285V2H332.071V0ZM333.071 48.6424V1H331.071V48.6424H333.071ZM353.907 47.6424H332.071V49.6424H353.907V47.6424ZM354.907 64.9106V48.6424H352.907V64.9106H354.907ZM313.285 65.9106H353.907V63.9106H313.285V65.9106ZM312.285 1V64.9106H314.285V1H312.285ZM371.036 41.4319L348.619 0.519476L346.865 1.48052L369.282 42.393L371.036 41.4319ZM371.159 64.9106V41.9125H369.159V64.9106H371.159ZM388.896 63.9106H370.159V65.9106H388.896V63.9106ZM387.896 41.9125V64.9106H389.896V41.9125H387.896ZM410.339 0.521075L388.018 41.4335L389.774 42.3914L412.094 1.47892L410.339 0.521075ZM388.509 2H411.216V0H388.509V2ZM380.412 21.0263L389.418 1.41735L387.6 0.58265L378.595 20.1916L380.412 21.0263ZM369.637 1.41549L378.594 21.0244L380.413 20.1934L371.456 0.584506L369.637 1.41549ZM347.742 2H370.546V0H347.742V2Z" fill="black" mask="url(#path-3-outside-1_40_3898)"/>
<mask id="path-5-inside-2_40_3898" fill="white">
<path fill-rule="evenodd" clip-rule="evenodd" d="M97 33.0689C97 28.4208 97.8392 24.0956 99.5177 20.0931C101.228 16.0583 103.601 12.54 106.635 9.53817C109.669 6.53631 113.22 4.19615 117.287 2.51769C121.386 0.839231 125.808 0 130.553 0C135.395 0 139.849 0.839231 143.916 2.51769C148.016 4.19615 151.566 6.53631 154.568 9.53817C157.602 12.54 159.942 16.0583 161.588 20.0931C163.267 24.0956 164.106 28.4208 164.106 33.0689C164.106 37.7492 163.299 42.1068 161.685 46.1415C160.071 50.144 157.763 53.6623 154.762 56.6964C151.792 59.6983 148.258 62.0385 144.158 63.7169C140.059 65.3954 135.524 66.2346 130.553 66.2346C125.453 66.2346 120.837 65.3954 116.706 63.7169C112.606 62.0385 109.088 59.6983 106.151 56.6964C103.214 53.6623 100.954 50.144 99.3724 46.1415C97.7908 42.1068 97 37.7492 97 33.0689ZM143 33C143 39.6274 137.627 45 131 45C130.786 45 130.573 44.9944 130.361 44.9833L130.382 45H120.714L123.22 42.1365C120.638 39.9354 119 36.659 119 33C119 26.3726 124.373 21 131 21C137.627 21 143 26.3726 143 33Z"/>
</mask>
<path fill-rule="evenodd" clip-rule="evenodd" d="M97 33.0689C97 28.4208 97.8392 24.0956 99.5177 20.0931C101.228 16.0583 103.601 12.54 106.635 9.53817C109.669 6.53631 113.22 4.19615 117.287 2.51769C121.386 0.839231 125.808 0 130.553 0C135.395 0 139.849 0.839231 143.916 2.51769C148.016 4.19615 151.566 6.53631 154.568 9.53817C157.602 12.54 159.942 16.0583 161.588 20.0931C163.267 24.0956 164.106 28.4208 164.106 33.0689C164.106 37.7492 163.299 42.1068 161.685 46.1415C160.071 50.144 157.763 53.6623 154.762 56.6964C151.792 59.6983 148.258 62.0385 144.158 63.7169C140.059 65.3954 135.524 66.2346 130.553 66.2346C125.453 66.2346 120.837 65.3954 116.706 63.7169C112.606 62.0385 109.088 59.6983 106.151 56.6964C103.214 53.6623 100.954 50.144 99.3724 46.1415C97.7908 42.1068 97 37.7492 97 33.0689ZM143 33C143 39.6274 137.627 45 131 45C130.786 45 130.573 44.9944 130.361 44.9833L130.382 45H120.714L123.22 42.1365C120.638 39.9354 119 36.659 119 33C119 26.3726 124.373 21 131 21C137.627 21 143 26.3726 143 33Z" fill="white"/>
<path d="M99.5177 20.0931L98.597 19.7027L98.5955 19.7064L99.5177 20.0931ZM106.635 9.53817L105.932 8.82729L105.932 8.8273L106.635 9.53817ZM117.287 2.51769L116.908 1.59226L116.905 1.59332L117.287 2.51769ZM143.916 2.51769L143.535 3.44207L143.537 3.44312L143.916 2.51769ZM154.568 9.53817L153.861 10.2453L153.865 10.2491L154.568 9.53817ZM161.588 20.0931L160.662 20.4709L160.666 20.4798L161.588 20.0931ZM161.685 46.1415L162.613 46.5155L162.614 46.5129L161.685 46.1415ZM154.762 56.6964L154.051 55.9931L154.051 55.9932L154.762 56.6964ZM116.706 63.7169L116.327 64.6424L116.329 64.6434L116.706 63.7169ZM106.151 56.6964L105.432 57.392L105.436 57.3958L106.151 56.6964ZM99.3724 46.1415L98.4414 46.5065L98.4424 46.509L99.3724 46.1415ZM130.361 44.9833L130.414 43.9847L127.329 43.823L129.734 45.7617L130.361 44.9833ZM130.382 45V46H133.215L131.01 44.2216L130.382 45ZM120.714 45L119.962 44.3415L118.511 46H120.714V45ZM123.22 42.1365L123.972 42.795L124.64 42.0326L123.869 41.3754L123.22 42.1365ZM98.5955 19.7064C96.8621 23.8398 96 28.2976 96 33.0689H98C98 28.5441 98.8163 24.3514 100.44 20.4798L98.5955 19.7064ZM105.932 8.8273C102.802 11.9233 100.357 15.5513 98.597 19.7027L100.438 20.4835C102.1 16.5654 104.399 13.1568 107.338 10.2491L105.932 8.8273ZM116.905 1.59332C112.722 3.3198 109.061 5.7312 105.932 8.82729L107.338 10.2491C110.277 7.34143 113.718 5.07251 117.668 3.44207L116.905 1.59332ZM130.553 -1C125.688 -1 121.136 -0.138863 116.908 1.59226L117.666 3.44312C121.636 1.81732 125.929 1 130.553 1V-1ZM144.298 1.59332C140.098 -0.139873 135.512 -1 130.553 -1V1C135.277 1 139.6 1.81833 143.535 3.44207L144.298 1.59332ZM155.275 8.83107C152.175 5.73131 148.512 3.31878 144.295 1.59226L143.537 3.44312C147.519 5.07353 150.957 7.34131 153.861 10.2453L155.275 8.83107ZM162.514 19.7153C160.818 15.5584 158.403 11.9261 155.271 8.8273L153.865 10.2491C156.801 13.154 159.066 16.5583 160.663 20.4709L162.514 19.7153ZM165.106 33.0689C165.106 28.2976 164.244 23.8398 162.511 19.7064L160.666 20.4798C162.29 24.3514 163.106 28.5441 163.106 33.0689H165.106ZM162.614 46.5129C164.278 42.3512 165.106 37.8666 165.106 33.0689H163.106C163.106 37.6319 162.32 41.8623 160.757 45.7701L162.614 46.5129ZM155.472 57.3998C158.569 54.2702 160.95 50.6396 162.613 46.5155L160.758 45.7675C159.193 49.6484 156.958 53.0544 154.051 55.9931L155.472 57.3998ZM144.537 64.6424C148.755 62.9155 152.404 60.5019 155.473 57.3997L154.051 55.9932C151.18 58.8947 147.76 61.1615 143.779 62.7915L144.537 64.6424ZM130.553 67.2346C135.638 67.2346 140.304 66.3757 144.537 64.6424L143.779 62.7915C139.814 64.415 135.41 65.2346 130.553 65.2346V67.2346ZM116.329 64.6434C120.596 66.3769 125.342 67.2346 130.553 67.2346V65.2346C125.564 65.2346 121.078 64.4139 117.082 62.7905L116.329 64.6434ZM105.436 57.3958C108.474 60.5004 112.108 62.9151 116.327 64.6424L117.085 62.7915C113.105 61.1618 109.702 58.8962 106.866 55.9971L105.436 57.3958ZM98.4424 46.509C100.071 50.6313 102.402 54.2616 105.432 57.392L106.869 56.0009C104.025 53.063 101.837 49.6567 100.302 45.774L98.4424 46.509ZM96 33.0689C96 37.8641 96.8107 42.3464 98.4414 46.5065L100.303 45.7766C98.7709 41.8671 98 37.6344 98 33.0689H96ZM131 46C138.18 46 144 40.1797 144 33H142C142 39.0751 137.075 44 131 44V46ZM130.309 45.9819C130.538 45.9939 130.768 46 131 46V44C130.803 44 130.608 43.9948 130.414 43.9847L130.309 45.9819ZM131.01 44.2216L130.989 44.2049L129.734 45.7617L129.754 45.7784L131.01 44.2216ZM120.714 46H130.382V44H120.714V46ZM122.467 41.478L119.962 44.3415L121.467 45.6585L123.972 42.795L122.467 41.478ZM118 33C118 36.9641 119.776 40.5146 122.571 42.8975L123.869 41.3754C121.5 39.3563 120 36.3538 120 33H118ZM131 20C123.82 20 118 25.8203 118 33H120C120 26.9249 124.925 22 131 22V20ZM144 33C144 25.8203 138.18 20 131 20V22C137.075 22 142 26.9249 142 33H144Z" fill="black" mask="url(#path-5-inside-2_40_3898)"/>
</svg>
